<svg width="38" height="36" viewBox="0 0 38 36" fill="none" xmlns="http://www.w3.org/2000/svg">
<path d="M17.4374 32.0625C17.4374 33.7917 16.0416 35.1875 14.3124 35.1875C12.5833 35.1875 11.1874 33.7917 11.1874 32.0625C11.1874 30.3333 12.5833 28.9375 14.3124 28.9375C16.0416 28.9375 17.4374 30.3333 17.4374 32.0625ZM30.9791 32.0625C30.9791 33.7917 29.5833 35.1875 27.8541 35.1875C26.1249 35.1875 24.7291 33.7917 24.7291 32.0625C24.7291 30.3333 26.1249 28.9375 27.8541 28.9375C29.5833 28.9375 30.9791 30.3333 30.9791 32.0625ZM37.1874 9L33.0207 25.6667C32.9368 26.0063 32.7413 26.3079 32.4655 26.5232C32.1898 26.7385 31.8498 26.8551 31.4999 26.8542H10.6666C9.91658 26.8542 9.27075 26.3125 9.12492 25.5625L5.18742 3.9375H2.33325C1.47909 3.9375 0.770752 3.22917 0.770752 2.375C0.770752 1.52083 1.47909 0.8125 2.33325 0.8125H6.49992C7.24992 0.8125 7.89575 1.35417 8.04158 2.10417L8.93742 7.0625H35.6666C35.9035 7.0635 36.1371 7.11807 36.35 7.22213C36.5628 7.32619 36.7493 7.47705 36.8956 7.66341C37.0419 7.84977 37.1441 8.06681 37.1947 8.29827C37.2452 8.52973 37.2427 8.76963 37.1874 9ZM33.6666 10.1875H21.5833H9.49992L11.9583 23.7292H21.1145H30.2708L33.6458 10.1875H33.6666Z" fill="black"/>
</svg>
